HIERARCHY
ROOT Hips
{
	OFFSET 0.000000 0.000000 0.000000
	CHANNELS 6 Xposition Yposition Zposition Zrotation Yrotation Xrotation 
	JOINT LHipJoint
	{
		OFFSET 0.000000 0.000000 0.000000
		CHANNELS 3 Zrotation Yrotation Xrotation
		JOINT LeftUpLeg
		{
			OFFSET 1.363060 -1.794630 0.839290
			CHANNELS 3 Zrotation Yrotation Xrotation
			JOINT LeftLeg
			{
				OFFSET 2.448110 -6.726130 0.000000
				CHANNELS 3 Zrotation Yrotation Xrotation
				JOINT LeftFoot
				{
					OFFSET 2.562200 -7.039590 0.000000
					CHANNELS 3 Zrotation Yrotation Xrotation
					JOINT LeftToeBase
					{
						OFFSET 0.157640 -0.433110 2.322550
						CHANNELS 3 Zrotation Yrotation Xrotation
						End Site
						{
							OFFSET 0.000000 0.000000 0.000000
						}
					}
				}
			}
		}
	}
	JOINT RHipJoint
	{
		OFFSET 0.000000 0.000000 0.000000
		CHANNELS 3 Zrotation Yrotation Xrotation
		JOINT RightUpLeg
		{
			OFFSET -1.305520 -1.794630 0.839290
			CHANNELS 3 Zrotation Yrotation Xrotation
			JOINT RightLeg
			{
				OFFSET -2.542530 -6.985550 0.000000
				CHANNELS 3 Zrotation Yrotation Xrotation
				JOINT RightFoot
				{
					OFFSET -2.568260 -7.056230 0.000000
					CHANNELS 3 Zrotation Yrotation Xrotation
					JOINT RightToeBase
					{
						OFFSET -0.164730 -0.452590 2.363150
						CHANNELS 3 Zrotation Yrotation Xrotation
						End Site
						{
							OFFSET 0.000000 0.000000 0.000000
						}
					}
				}
			}
		}
	}
	JOINT LowerBack
	{
		OFFSET 0.000000 0.000000 0.000000
		CHANNELS 3 Zrotation Yrotation Xrotation
		JOINT Spine
		{
			OFFSET 0.028270 2.035590 -0.193380
			CHANNELS 3 Zrotation Yrotation Xrotation
			JOINT Spine1
			{
				OFFSET 0.056720 2.048850 -0.042750
				CHANNELS 3 Zrotation Yrotation Xrotation
				JOINT Neck
				{
					OFFSET 0.000000 0.000000 0.000000
					CHANNELS 3 Zrotation Yrotation Xrotation
					JOINT Neck1
					{
						OFFSET -0.054170 1.746240 0.172020
						CHANNELS 3 Zrotation Yrotation Xrotation
						JOINT Head
						{
							OFFSET 0.104070 1.761360 -0.123970
							CHANNELS 3 Zrotation Yrotation Xrotation
							End Site
							{
								OFFSET 0.000000 0.000000 0.000000
							}
						}
					}
				}
				JOINT LeftShoulder
				{
					OFFSET 0.000000 0.000000 0.000000
					CHANNELS 3 Zrotation Yrotation Xrotation
					JOINT LeftArm
					{
						OFFSET 3.362410 1.200890 -0.311210
						CHANNELS 3 Zrotation Yrotation Xrotation
						JOINT LeftForeArm
						{
							OFFSET 4.983000 -0.000000 -0.000000
							CHANNELS 3 Zrotation Yrotation Xrotation
							JOINT LeftHand
							{
								OFFSET 3.483560 -0.000000 -0.000000
								CHANNELS 3 Zrotation Yrotation Xrotation
								JOINT LeftFingerBase
								{
									OFFSET 0.000000 0.000000 0.000000
									CHANNELS 3 Zrotation Yrotation Xrotation
									JOINT LeftHandIndex1
									{
										OFFSET 0.715260 -0.000000 -0.000000
										CHANNELS 3 Zrotation Yrotation Xrotation
										End Site
										{
											OFFSET 0.000000 0.000000 0.000000
										}
									}
								}
								JOINT LThumb
								{
									OFFSET 0.000000 0.000000 0.000000
									CHANNELS 3 Zrotation Yrotation Xrotation
									End Site
									{
										OFFSET 0.000000 0.000000 0.000000
									}
								}
							}
						}
					}
				}
				JOINT RightShoulder
				{
					OFFSET 0.000000 0.000000 0.000000
					CHANNELS 3 Zrotation Yrotation Xrotation
					JOINT RightArm
					{
						OFFSET -3.136600 1.374050 -0.404650
						CHANNELS 3 Zrotation Yrotation Xrotation
						JOINT RightForeArm
						{
							OFFSET -5.241900 -0.000000 -0.000000
							CHANNELS 3 Zrotation Yrotation Xrotation
							JOINT RightHand
							{
								OFFSET -3.444170 -0.000000 -0.000000
								CHANNELS 3 Zrotation Yrotation Xrotation
								JOINT RightFingerBase
								{
									OFFSET 0.000000 0.000000 0.000000
									CHANNELS 3 Zrotation Yrotation Xrotation
									JOINT RightHandIndex1
									{
										OFFSET -0.622530 -0.000000 -0.000000
										CHANNELS 3 Zrotation Yrotation Xrotation
										End Site
										{
											OFFSET 0.000000 0.000000 0.000000
										}
									}
								}
								JOINT RThumb
								{
									OFFSET 0.000000 0.000000 0.000000
									CHANNELS 3 Zrotation Yrotation Xrotation
									End Site
									{
										OFFSET 0.000000 0.000000 0.000000
									}
								}
							}
						}
					}
				}
			}
		}
	}
}
MOTION
Frames: 11
Frame Time: 0.008333
-15.145223 18.097385 -3.472637 -0.669028 9.989072 1.299828 -3.332869 5.012169 5.381116 1.593456 -11.326777 -15.684886 -0.267749 5.427407 16.128131 -5.847224 19.092930 2.627122 0.244200 -3.180200 -8.780800 -0.116784 -5.541023 4.450071 23.975948 17.983539 -9.551796 -2.143861 -7.236575 27.215451 4.103591 -14.320691 -7.863322 -0.005900 -0.494300 1.358300 5.298078 0.752048 -1.281712 -0.444191 0.369228 14.733265 0.663683 0.539321 -6.403803 -7.216755 1.754512 -14.238093 5.977929 2.155129 25.696936 3.544800 1.271500 7.801800 -7.577976 -1.248999 -0.835214 -77.535489 -0.942056 58.188571 20.769111 -30.452688 -6.948624 0.544161 -1.623891 -3.321179 -0.333166 20.327514 -0.291000 -7.125000 0.000000 0.000000 -28.881800 49.593700 -3.536100 9.386285 1.108405 -1.625617 68.559863 -5.167931 22.382298 -13.058994 16.968858 -2.516868 1.626636 0.046696 13.443599 -24.015558 2.803697 -1.107600 7.125000 0.000000 0.000000 0.769400 -27.414400 0.328800 
-15.147375 18.096994 -3.476745 -0.496385 10.585084 1.262911 -3.344741 4.997350 5.382039 1.461288 -11.181996 -15.742503 -0.307154 5.359242 15.976687 -5.534614 18.302050 3.291769 0.389000 -4.005200 -11.091200 -0.102280 -5.540289 4.452701 23.809534 17.986703 -9.514784 -2.163082 -7.273911 27.319949 4.220728 -14.719755 -8.327981 -0.008100 -0.581800 1.598700 5.075319 0.802241 -1.171199 -0.348527 0.431497 14.845460 0.790434 0.584203 -6.437351 -7.156099 1.912698 -14.545176 5.874291 2.404056 26.063650 3.552800 1.388400 7.928900 -7.569836 -1.229499 -0.837769 -77.627319 -0.907039 57.957002 21.024418 -30.747115 -7.104562 0.574209 -1.631213 -3.475454 -0.768665 20.615031 -0.469400 -7.125000 0.000000 0.000000 -29.462000 49.783300 -3.766200 9.340033 1.104553 -1.621713 68.434608 -5.259686 22.360536 -13.104400 17.072951 -2.542552 1.610319 0.077149 13.603611 -23.843683 2.548135 -0.963200 7.125000 0.000000 0.000000 0.918700 -27.732600 0.385700 
-15.149429 18.092592 -3.490635 -0.459810 11.286744 1.311787 -3.338728 4.960644 5.350183 1.491047 -11.162941 -15.950368 -0.336892 5.327576 15.925754 -5.147698 17.276967 3.754683 0.454100 -4.322900 -11.986800 -0.108425 -5.517068 4.442766 23.779933 17.919661 -9.640802 -2.178842 -7.295987 27.397072 4.328063 -15.082714 -8.714968 -0.013500 -0.751400 2.064900 5.185035 0.867714 -0.978308 -0.434336 0.545676 14.798452 0.724037 0.635522 -6.584422 -7.118892 2.012973 -14.761238 5.988418 2.510344 26.385684 3.603600 1.459200 8.029100 -7.551515 -1.189704 -0.829642 -77.508997 -0.829526 58.049009 21.223007 -30.988382 -7.227530 0.590075 -1.640012 -3.408409 -1.031386 20.913355 -0.583000 -7.125000 0.000000 0.000000 -29.889800 50.007500 -4.006800 9.322988 1.058906 -1.637174 68.505431 -5.648915 22.383049 -13.224112 17.290204 -2.597451 1.630621 0.093253 13.388942 -24.139259 2.594913 -0.990600 7.125000 0.000000 0.000000 0.677200 -27.695100 0.284900 
-15.150016 18.089169 -3.499634 -0.448693 11.901356 1.353466 -3.332836 4.924943 5.329558 1.520138 -11.043448 -16.167799 -0.362935 5.302848 15.886572 -4.783344 16.311413 4.158347 0.433200 -4.223500 -11.706400 -0.123955 -5.497129 4.433723 23.779962 17.838019 -9.745017 -2.192759 -7.313016 27.463210 4.418048 -15.386978 -9.032331 -0.019000 -0.889000 2.443500 5.372880 0.987867 -0.935949 -0.597573 0.723803 14.797472 0.606092 0.715122 -6.625126 -7.241508 2.056979 -15.004943 6.400687 2.483485 26.791752 3.745000 1.489400 8.161800 -7.527376 -1.179071 -0.817822 -77.357301 -0.848635 58.191423 21.302768 -31.089481 -7.277230 0.597765 -1.645651 -3.451100 -1.150837 21.103521 -0.636400 -7.125000 0.000000 0.000000 -30.117300 50.158400 -4.162400 9.336251 1.025970 -1.647942 68.635525 -5.864885 22.391043 -13.272219 17.369730 -2.619087 1.645502 0.081452 13.206670 -24.360667 2.828881 -1.119800 7.125000 0.000000 0.000000 0.494600 -27.419300 0.211300 
-15.149429 18.088288 -3.498851 -0.458478 12.417018 1.299076 -3.307279 4.900484 5.328932 1.491950 -10.756026 -16.340565 -0.373015 5.303375 15.914909 -4.481026 15.527413 4.593636 0.406400 -4.092800 -11.337800 -0.122745 -5.491259 4.435716 23.819699 17.768719 -9.687505 -2.203369 -7.325298 27.515739 4.506848 -15.690858 -9.366090 -0.023000 -0.980000 2.693900 5.347776 1.084001 -0.997705 -0.494131 0.837617 14.896984 0.608727 0.783310 -6.544348 -7.384395 2.173425 -15.167250 6.630734 2.613873 27.079085 3.852200 1.573400 8.250100 -7.529178 -1.193909 -0.818859 -77.390297 -0.859735 58.042011 21.383565 -31.178765 -7.326196 0.611559 -1.648527 -3.605893 -1.349558 21.229025 -0.720800 -7.125000 0.000000 0.000000 -30.380200 50.238700 -4.269400 9.329695 1.043956 -1.632799 68.508096 -5.703904 22.613686 -13.161088 17.194467 -2.567660 1.678128 0.053941 12.906823 -24.644131 3.000957 -1.233500 7.125000 0.000000 0.000000 0.248400 -27.191700 0.107400 
-15.146201 18.085158 -3.502666 -0.497820 12.996977 1.276805 -3.281705 4.869881 5.317004 1.460640 -10.397174 -16.577637 -0.376384 5.320413 15.971612 -4.194193 14.802264 5.084251 0.399900 -4.060000 -11.245500 -0.127717 -5.475521 4.427376 23.885877 17.679877 -9.676538 -2.211206 -7.333219 27.561307 4.595329 -16.008382 -9.779495 -0.024000 -0.999300 2.747000 5.458177 1.128490 -0.968207 -0.496766 0.905166 14.816737 0.553786 0.816631 -6.564308 -7.216215 2.365541 -14.958639 6.567490 2.852028 27.171715 3.834200 1.693400 8.226400 -7.538696 -1.187637 -0.821067 -77.337916 -0.718679 57.847813 21.541279 -31.360325 -7.425166 0.636146 -1.649629 -3.965799 -1.659426 21.387156 -0.852700 -7.125000 0.000000 0.000000 -30.767600 50.329100 -4.407100 9.334436 1.055287 -1.619300 68.405323 -5.661420 22.810264 -13.049230 17.021133 -2.513238 1.731541 0.028121 12.847824 -25.149484 3.014738 -1.277500 7.125000 0.000000 0.000000 -0.183200 -27.148600 -0.079400 
-15.137496 18.083300 -3.507361 -0.468341 13.575818 1.322107 -3.279925 4.833644 5.300699 1.344320 -10.040935 -16.821775 -0.377555 5.353140 16.084667 -3.946130 14.147416 5.304728 0.374800 -3.932000 -10.885400 -0.142925 -5.452530 4.412831 23.829788 17.439109 -9.789978 -2.215492 -7.345373 27.604587 4.633362 -16.171696 -10.109563 -0.021000 -0.935600 2.571500 5.691207 1.221875 -0.962551 -0.703031 1.051046 14.657872 0.430091 0.875147 -6.597821 -6.952215 2.496146 -14.682592 6.545187 2.967747 27.289606 3.799600 1.764700 8.207400 -7.541142 -1.176322 -0.815141 -77.214580 -0.648813 57.889692 21.593698 -31.423747 -7.460206 0.637144 -1.640662 -4.094743 -1.646809 21.223056 -0.840900 -7.125000 0.000000 0.000000 -30.651300 50.183200 -4.269500 9.362958 1.050743 -1.615910 68.421227 -5.771013 22.782870 -12.986516 16.925572 -2.485772 1.721441 0.033093 13.062154 -24.965058 2.876774 -1.194200 7.125000 0.000000 0.000000 -0.034700 -27.315200 -0.014900 
-15.128301 18.083398 -3.510980 -0.385510 14.092927 1.320153 -3.279211 4.803362 5.298327 1.127758 -9.626388 -17.022609 -0.367994 5.409614 16.286641 -3.780628 13.666316 5.158518 0.388700 -4.003600 -11.086900 -0.148896 -5.437644 4.408697 23.696705 17.086040 -9.905392 -2.220581 -7.363566 27.648005 4.650829 -16.248424 -10.263715 -0.019500 -0.901400 2.477500 5.750767 1.340283 -0.945126 -0.790712 1.215773 14.659108 0.391035 0.956240 -6.598402 -6.890105 2.593681 -14.740618 6.627594 3.067681 27.497847 3.831100 1.830000 8.262300 -7.545630 -1.182094 -0.810244 -77.224053 -0.748293 57.920983 21.522176 -31.340224 -7.414984 0.612549 -1.631181 -3.886190 -1.283087 20.904996 -0.682900 -7.125000 0.000000 0.000000 -30.115600 49.956700 -4.002100 9.376604 1.061571 -1.605810 68.394447 -5.697798 22.578719 -12.921653 16.822796 -2.457697 1.692501 0.044628 13.187832 -24.565343 2.736011 -1.100300 7.125000 0.000000 0.000000 0.294800 -27.487200 0.125500 
-15.123997 18.081148 -3.517338 -0.365048 14.629908 1.239512 -3.264103 4.777023 5.298046 0.945458 -9.131791 -17.251447 -0.339702 5.500197 16.562435 -3.678176 13.359824 4.955500 0.439600 -4.254400 -11.793400 -0.160379 -5.426672 4.404956 23.684882 16.819320 -9.920683 -2.229472 -7.376772 27.693706 4.708537 -16.445375 -10.454652 -0.019600 -0.903400 2.483200 5.827423 1.422470 -0.778594 -0.881063 1.346845 14.644535 0.329671 1.020830 -6.688893 -7.125829 2.722887 -14.552917 7.232627 3.114712 27.343084 4.021100 1.907900 8.166400 -7.531462 -1.193822 -0.810764 -77.169416 -0.703819 57.910164 21.536108 -31.361760 -7.420396 0.581677 -1.629743 -3.675627 -0.754830 20.781572 -0.468000 -7.125000 0.000000 0.000000 -29.547400 49.931000 -3.893700 9.408810 1.056856 -1.606171 68.442420 -5.594549 22.300418 -12.852258 16.697336 -2.418752 1.719309 0.024913 13.269491 -24.811622 2.737617 -1.119500 7.125000 0.000000 0.000000 0.082500 -27.468300 0.035200 
-15.121259 18.077040 -3.522620 -0.444738 15.146036 1.135582 -3.227114 4.752767 5.294470 0.839202 -8.538467 -17.542530 -0.294401 5.622409 16.894388 -3.619275 13.182235 4.731361 0.420400 -4.161600 -11.531600 -0.181509 -5.413655 4.395341 23.826554 16.707329 -9.843265 -2.240575 -7.382976 27.748151 4.783564 -16.717357 -10.789676 -0.020900 -0.934200 2.567700 6.021700 1.517161 -0.587945 -0.987932 1.504624 14.568054 0.205305 1.093431 -6.797614 -7.224176 2.882722 -14.184233 7.708420 3.206487 27.130092 4.152900 1.999400 8.028800 -7.517892 -1.194430 -0.813585 -77.026985 -0.505582 57.983990 21.683154 -31.538738 -7.506079 0.546400 -1.635171 -3.810399 0.028499 20.849917 -0.154200 -7.125000 0.000000 0.000000 -28.852100 50.122900 -3.932200 9.438329 1.047402 -1.607432 68.468234 -5.560196 22.079326 -12.776203 16.572887 -2.386472 1.732817 -0.050046 13.650499 -25.074232 3.214387 -1.402000 7.125000 0.000000 0.000000 -0.130900 -26.865800 -0.057600 
-15.117737 18.075181 -3.528489 -0.482697 15.714576 1.127843 -3.178669 4.714451 5.274998 0.645969 -7.825908 -17.948008 -0.240782 5.764015 17.296688 -3.545849 12.959519 4.470341 0.371900 -3.916900 -10.843000 -0.185516 -5.397090 4.387854 23.882513 16.658538 -9.845721 -2.248405 -7.389961 27.792285 4.869554 -17.030396 -11.174129 -0.024100 -1.002400 2.755400 6.033476 1.569191 -0.509434 -0.914879 1.579814 14.516140 0.221174 1.136897 -6.831429 -6.622601 3.109543 -14.157574 6.758669 3.673932 27.429722 3.872400 2.159900 8.099500 -7.560580 -1.175315 -0.817150 -77.077111 -0.462926 57.953004 21.718660 -31.570820 -7.517213 0.526921 -1.661144 -4.082149 0.577807 21.377630 0.069100 -7.125000 0.000000 0.000000 -28.652000 50.700800 -4.332700 9.403658 1.091711 -1.575880 68.290920 -5.403564 21.755102 -12.713015 16.494873 -2.370966 1.714570 -0.155920 14.507801 -25.171384 3.886639 -1.788100 7.125000 0.000000 0.000000 -0.189800 -26.020900 -0.087300 
